<svg width="0" height="0" display="none" xmlns="http://www.w3.org/2000/svg" aria-hidden="true" style="width: 0px; height: 0px; overflow: hidden; position: absolute;" version="1.1">
<defs>	
	<symbol id="icon_database" viewBox="0 0 60 60">
		<path d="M35,0C23.849,0,14.43,2.588,11.215,6.475C4.669,8.077,0.884,10.775,0.146,13.51C0.062,13.657,0,13.818,0,14v0.5V26v0.5V27  v11v0.5V39v12c0,0.162,0.043,0.315,0.117,0.451C1.298,56.346,11.864,60,25,60c11.24,0,20.579-2.68,23.786-6.518  c6.359-1.546,10.366-4.076,11.09-7C59.955,46.34,60,46.175,60,46V34v-0.5V22v-0.5v-12C60,4.895,51.238,0,35,0z M47.805,39.348  c-0.04,0.099-0.089,0.198-0.143,0.297c-0.067,0.123-0.142,0.246-0.231,0.369c-0.066,0.093-0.141,0.185-0.219,0.277  c-0.111,0.131-0.229,0.262-0.363,0.392c-0.081,0.079-0.17,0.157-0.26,0.236c-0.164,0.143-0.335,0.285-0.526,0.426  c-0.082,0.061-0.17,0.12-0.257,0.18c-0.226,0.156-0.462,0.311-0.721,0.463c-0.068,0.041-0.141,0.08-0.212,0.12  c-0.298,0.168-0.609,0.335-0.945,0.497c-0.043,0.021-0.088,0.041-0.132,0.061c-0.375,0.177-0.767,0.351-1.186,0.519  c-0.012,0.005-0.024,0.009-0.036,0.014c-2.271,0.907-5.176,1.67-8.561,2.17c-0.017,0.002-0.034,0.004-0.051,0.007  c-0.658,0.097-1.333,0.183-2.026,0.259c-0.113,0.012-0.232,0.02-0.346,0.032c-0.605,0.063-1.217,0.121-1.847,0.167  c-0.288,0.021-0.59,0.031-0.883,0.049c-0.474,0.028-0.943,0.059-1.429,0.076C26.637,45.984,25.827,46,25,46  s-1.637-0.016-2.432-0.044c-0.486-0.017-0.955-0.049-1.429-0.076c-0.293-0.017-0.595-0.028-0.883-0.049  c-0.63-0.046-1.242-0.104-1.847-0.167c-0.114-0.012-0.233-0.02-0.346-0.032c-0.693-0.076-1.368-0.163-2.026-0.259  c-0.017-0.002-0.034-0.004-0.051-0.007c-3.385-0.5-6.29-1.263-8.561-2.17c-0.012-0.004-0.024-0.009-0.036-0.014  c-0.419-0.168-0.812-0.342-1.186-0.519c-0.043-0.021-0.089-0.041-0.132-0.061c-0.336-0.162-0.647-0.328-0.945-0.497  c-0.07-0.04-0.144-0.079-0.212-0.12c-0.259-0.152-0.495-0.307-0.721-0.463c-0.086-0.06-0.175-0.119-0.257-0.18  c-0.191-0.141-0.362-0.283-0.526-0.426c-0.089-0.078-0.179-0.156-0.26-0.236c-0.134-0.13-0.252-0.26-0.363-0.392  c-0.078-0.092-0.153-0.184-0.219-0.277c-0.088-0.123-0.163-0.246-0.231-0.369c-0.054-0.099-0.102-0.198-0.143-0.297  c-0.049-0.121-0.088-0.242-0.116-0.363C2.041,38.823,2,38.661,2,38.5c0-0.113,0.013-0.226,0.031-0.338  C2.056,38.011,2.042,37.86,2,37.717v-7.424c0.028,0.026,0.063,0.051,0.092,0.077c0.218,0.192,0.44,0.383,0.69,0.567  C6.549,33.786,14.082,36,25,36c10.872,0,18.386-2.196,22.169-5.028c0.302-0.22,0.574-0.447,0.83-0.678L48,30.293v7.424  c-0.042,0.143-0.056,0.294-0.031,0.445C47.987,38.274,48,38.387,48,38.5c0,0.161-0.041,0.323-0.079,0.485  C47.892,39.106,47.854,39.227,47.805,39.348z M2.601,18.797c0.3,0.236,0.624,0.469,0.975,0.696c0.073,0.047,0.155,0.093,0.231,0.14  c0.294,0.183,0.605,0.362,0.932,0.538c0.121,0.065,0.242,0.129,0.367,0.193c0.365,0.186,0.748,0.367,1.151,0.542  c0.066,0.029,0.126,0.059,0.193,0.087c0.469,0.199,0.967,0.389,1.485,0.573c0.143,0.051,0.293,0.099,0.44,0.149  c0.412,0.139,0.838,0.272,1.279,0.401c0.159,0.046,0.315,0.094,0.478,0.138c0.585,0.162,1.189,0.316,1.823,0.458  c0.087,0.02,0.181,0.036,0.269,0.055c0.559,0.122,1.139,0.235,1.735,0.341c0.202,0.036,0.407,0.07,0.613,0.104  c0.567,0.093,1.151,0.178,1.75,0.256c0.154,0.02,0.301,0.043,0.457,0.062c0.744,0.09,1.514,0.167,2.305,0.233  c0.195,0.016,0.398,0.028,0.596,0.042c0.633,0.046,1.28,0.084,1.942,0.114c0.241,0.011,0.481,0.022,0.727,0.031  C23.212,23.979,24.09,24,25,24s1.788-0.021,2.65-0.05c0.245-0.009,0.485-0.02,0.727-0.031c0.662-0.03,1.309-0.068,1.942-0.114  c0.198-0.015,0.4-0.026,0.596-0.042c0.791-0.065,1.561-0.143,2.305-0.233c0.156-0.019,0.303-0.042,0.457-0.062  c0.599-0.078,1.182-0.163,1.75-0.256c0.206-0.034,0.411-0.068,0.613-0.104c0.596-0.106,1.176-0.219,1.735-0.341  c0.088-0.019,0.182-0.036,0.269-0.055c0.634-0.142,1.238-0.297,1.823-0.458c0.163-0.045,0.319-0.092,0.478-0.138  c0.441-0.129,0.867-0.262,1.279-0.401c0.147-0.05,0.297-0.098,0.44-0.149c0.518-0.184,1.017-0.374,1.485-0.573  c0.067-0.028,0.127-0.058,0.193-0.087c0.403-0.176,0.786-0.356,1.151-0.542c0.125-0.064,0.247-0.128,0.367-0.193  c0.327-0.175,0.638-0.354,0.932-0.538c0.076-0.047,0.158-0.093,0.231-0.14c0.351-0.227,0.675-0.459,0.975-0.696  c0.075-0.06,0.142-0.12,0.215-0.18c0.13-0.108,0.267-0.215,0.387-0.324v7.424c-0.042,0.143-0.056,0.294-0.031,0.445  C47.987,26.274,48,26.387,48,26.5c0,0.161-0.041,0.323-0.079,0.485c-0.028,0.121-0.067,0.241-0.116,0.363  c-0.04,0.099-0.089,0.198-0.143,0.297c-0.067,0.123-0.142,0.246-0.231,0.369c-0.066,0.093-0.141,0.185-0.219,0.277  c-0.111,0.131-0.229,0.262-0.363,0.392c-0.081,0.079-0.17,0.157-0.26,0.236c-0.164,0.143-0.335,0.285-0.526,0.426  c-0.082,0.061-0.17,0.12-0.257,0.18c-0.226,0.156-0.462,0.311-0.721,0.463c-0.068,0.041-0.141,0.08-0.212,0.12  c-0.298,0.168-0.609,0.335-0.945,0.497c-0.043,0.021-0.088,0.041-0.132,0.061c-0.375,0.177-0.767,0.351-1.186,0.519  c-0.012,0.005-0.024,0.009-0.036,0.014c-2.271,0.907-5.176,1.67-8.561,2.17c-0.017,0.002-0.034,0.004-0.051,0.007  c-0.658,0.097-1.333,0.183-2.026,0.259c-0.113,0.012-0.232,0.02-0.346,0.032c-0.605,0.063-1.217,0.121-1.847,0.167  c-0.288,0.021-0.59,0.031-0.883,0.049c-0.474,0.028-0.943,0.059-1.429,0.076C26.637,33.984,25.827,34,25,34  s-1.637-0.016-2.432-0.044c-0.486-0.017-0.955-0.049-1.429-0.076c-0.293-0.017-0.595-0.028-0.883-0.049  c-0.63-0.046-1.242-0.104-1.847-0.167c-0.114-0.012-0.233-0.02-0.346-0.032c-0.693-0.076-1.368-0.163-2.026-0.259  c-0.017-0.002-0.034-0.004-0.051-0.007c-3.385-0.5-6.29-1.263-8.561-2.17c-0.012-0.004-0.024-0.009-0.036-0.014  c-0.419-0.168-0.812-0.342-1.186-0.519c-0.043-0.021-0.089-0.041-0.132-0.061c-0.336-0.162-0.647-0.328-0.945-0.497  c-0.07-0.04-0.144-0.079-0.212-0.12c-0.259-0.152-0.495-0.307-0.721-0.463c-0.086-0.06-0.175-0.119-0.257-0.18  c-0.191-0.141-0.362-0.283-0.526-0.426c-0.089-0.078-0.179-0.156-0.26-0.236c-0.134-0.13-0.252-0.26-0.363-0.392  c-0.078-0.092-0.153-0.184-0.219-0.277c-0.088-0.123-0.163-0.246-0.231-0.369c-0.054-0.099-0.102-0.198-0.143-0.297  c-0.049-0.121-0.088-0.242-0.116-0.363C2.041,26.823,2,26.661,2,26.5c0-0.113,0.013-0.226,0.031-0.338  C2.056,26.011,2.042,25.86,2,25.717v-7.424c0.12,0.109,0.257,0.216,0.387,0.324C2.459,18.677,2.526,18.737,2.601,18.797z M50,39.09  V39v-0.5V38v-8.828c0.043-0.012,0.083-0.025,0.126-0.037c0.4-0.112,0.79-0.227,1.168-0.346c0.004-0.001,0.009-0.003,0.013-0.004  c2.961-0.936,5.22-2.099,6.693-3.427V33.5c0,0.116-0.015,0.232-0.035,0.349c-0.016,0.096-0.043,0.192-0.072,0.288  c-0.009,0.028-0.015,0.056-0.025,0.085c-0.036,0.105-0.081,0.21-0.133,0.315c-0.006,0.013-0.013,0.026-0.019,0.039  c-0.828,1.615-3.465,3.202-7.27,4.379C50.299,39,50.151,39.046,50,39.09z M58,13.347V21.5c0,0.116-0.015,0.232-0.035,0.349  c-0.016,0.096-0.043,0.192-0.072,0.288c-0.009,0.028-0.015,0.056-0.025,0.085c-0.036,0.105-0.081,0.21-0.133,0.315  c-0.006,0.013-0.013,0.026-0.019,0.039c-0.828,1.615-3.465,3.202-7.27,4.379C50.299,27,50.151,27.046,50,27.09V27v-0.5V26v-8.828  c0.084-0.023,0.161-0.049,0.244-0.072c0.23-0.065,0.454-0.133,0.677-0.2c0.189-0.057,0.378-0.115,0.561-0.174  c0.228-0.074,0.448-0.15,0.667-0.227c0.166-0.058,0.334-0.115,0.495-0.174c0.231-0.085,0.452-0.174,0.673-0.262  c0.137-0.055,0.279-0.108,0.412-0.164c0.256-0.108,0.5-0.219,0.742-0.332c0.087-0.04,0.179-0.079,0.263-0.119  c0.324-0.156,0.635-0.316,0.931-0.479c0.031-0.017,0.057-0.035,0.088-0.052c0.261-0.146,0.513-0.295,0.751-0.447  c0.084-0.054,0.159-0.109,0.24-0.163c0.176-0.117,0.35-0.235,0.512-0.356c0.089-0.066,0.169-0.134,0.253-0.201  c0.141-0.112,0.282-0.224,0.411-0.338C57.946,13.389,57.976,13.369,58,13.347z M35,2c13.555,0,23,3.952,23,7.5  c0,0.133-0.014,0.266-0.04,0.399c-0.008,0.044-0.025,0.087-0.036,0.131c-0.023,0.09-0.045,0.179-0.079,0.269  c-0.02,0.052-0.047,0.104-0.07,0.156c-0.037,0.081-0.073,0.162-0.119,0.243c-0.031,0.055-0.068,0.11-0.103,0.165  c-0.05,0.078-0.1,0.156-0.157,0.233c-0.042,0.056-0.089,0.112-0.135,0.167c-0.063,0.076-0.127,0.152-0.197,0.227  c-0.052,0.056-0.108,0.112-0.164,0.168c-0.075,0.074-0.153,0.149-0.236,0.223c-0.062,0.055-0.126,0.111-0.192,0.166  c-0.088,0.073-0.18,0.146-0.275,0.219c-0.071,0.054-0.143,0.109-0.218,0.163c-0.101,0.073-0.208,0.145-0.316,0.217  c-0.079,0.053-0.158,0.105-0.241,0.158c-0.116,0.073-0.237,0.145-0.36,0.216c-0.085,0.05-0.169,0.1-0.258,0.149  c-0.132,0.073-0.272,0.146-0.412,0.219c-0.089,0.046-0.175,0.093-0.267,0.138c-0.153,0.076-0.315,0.15-0.476,0.225  c-0.088,0.04-0.171,0.081-0.261,0.121c-0.213,0.094-0.434,0.187-0.659,0.278c-0.045,0.018-0.086,0.037-0.131,0.055  c-0.274,0.109-0.558,0.216-0.85,0.321c-0.081,0.029-0.168,0.057-0.25,0.085c-0.214,0.074-0.428,0.148-0.651,0.22  c-0.116,0.038-0.238,0.073-0.357,0.11c-0.161,0.05-0.322,0.099-0.487,0.147V14.5V14c0-0.113-0.027-0.22-0.065-0.322  c-0.014-0.04-0.027-0.078-0.046-0.115c-0.002-0.004-0.003-0.01-0.006-0.014c-0.284-1.177-1.122-2.279-2.396-3.279  c-0.007-0.006-0.013-0.012-0.021-0.017c-0.182-0.143-0.385-0.28-0.585-0.418c-3.547-2.511-10.075-4.479-19.335-4.786  C26.71,5.018,25.861,5,25,5c-0.854,0-1.703,0.017-2.545,0.048c-2.498,0.083-4.787,0.291-6.884,0.594C19.445,3.612,26.273,2,35,2z   M13.493,8.061c0.252-0.05,0.512-0.094,0.769-0.141c0.332-0.061,0.666-0.12,1.009-0.175c0.299-0.048,0.601-0.093,0.905-0.137  c0.337-0.048,0.681-0.093,1.028-0.136c0.294-0.037,0.587-0.075,0.885-0.107c0.599-0.065,1.209-0.122,1.833-0.17  c0.237-0.019,0.478-0.031,0.717-0.047c0.484-0.032,0.972-0.06,1.47-0.081c0.235-0.01,0.47-0.02,0.707-0.028  C23.534,7.017,24.258,7,25,7c0.827,0,1.637,0.016,2.433,0.044c0.48,0.017,0.943,0.048,1.411,0.075c0.3,0.017,0.607,0.029,0.902,0.05  c0.621,0.045,1.224,0.103,1.821,0.164c0.123,0.012,0.252,0.021,0.374,0.035c0.677,0.074,1.336,0.159,1.98,0.253  c0.033,0.005,0.068,0.009,0.1,0.013c3.369,0.498,6.261,1.256,8.526,2.157c0.025,0.01,0.052,0.02,0.077,0.03  c0.406,0.163,0.786,0.332,1.149,0.503c0.056,0.026,0.114,0.052,0.169,0.078c0.325,0.157,0.625,0.318,0.914,0.48  c0.08,0.045,0.164,0.09,0.241,0.136c0.249,0.147,0.477,0.296,0.696,0.447c0.095,0.065,0.191,0.131,0.28,0.197  c0.184,0.136,0.349,0.273,0.507,0.411c0.095,0.083,0.19,0.166,0.276,0.25c0.129,0.126,0.244,0.252,0.351,0.379  c0.081,0.096,0.16,0.192,0.228,0.289c0.086,0.119,0.159,0.239,0.225,0.359c0.056,0.102,0.105,0.203,0.146,0.304  c0.048,0.119,0.086,0.239,0.114,0.358C47.959,14.176,48,14.338,48,14.5c0,3.548-9.445,7.5-23,7.5S2,18.048,2,14.5  C2,12.08,6.399,9.475,13.493,8.061z M25,58c-13.036,0-22.401-3.703-22.968-7.162C2.024,50.793,2.014,50.749,2,50.707v-8.414  c0.028,0.026,0.063,0.051,0.092,0.077c0.218,0.192,0.44,0.383,0.69,0.567C6.549,45.786,14.082,48,25,48  c10.872,0,18.386-2.196,22.169-5.028c0.302-0.22,0.574-0.447,0.83-0.678L48,42.293v8.41c-0.014,0.044-0.024,0.089-0.032,0.135  c-0.033,0.204-0.103,0.409-0.196,0.613c-0.036,0.079-0.092,0.158-0.137,0.237C45.826,54.877,36.971,58,25,58z M57.968,45.838  c-0.317,1.941-3.314,3.891-7.972,5.255C49.999,51.063,50,51.031,50,51v-9.828c0.043-0.012,0.083-0.025,0.126-0.037  c0.4-0.112,0.79-0.227,1.168-0.346c0.004-0.001,0.009-0.003,0.013-0.004c2.961-0.936,5.22-2.099,6.693-3.427v8.346  C57.986,45.747,57.976,45.792,57.968,45.838z" data-original="#000000" class="active-path" data-old_color="#000000" fill="#B4B4B4"/>
	</symbol>

	<symbol id="icon_profile" viewBox="-24 0 480 480">
		<path d="m312 208c-66.273438 0-120 53.726562-120 120s53.726562 120 120 120 120-53.726562 120-120c-.074219-66.242188-53.757812-119.925781-120-120zm-32 218.910156v-26.910156h-16v20.167969c-5.640625-2.96875-10.996094-6.453125-16-10.398438v-9.609375c.019531-10.714844 7.109375-20.128906 17.398438-23.113281l17.402343-4.957031 24.398438 18.308594c2.84375 2.136718 6.757812 2.136718 9.601562 0l24.398438-18.308594 17.410156 4.964844c10.285156 2.980468 17.371094 12.394531 17.390625 23.105468v9.648438c-5.003906 3.949218-10.359375 7.429687-16 10.398437v-20.207031h-16v26.910156c-20.792969 6.785156-43.207031 6.785156-64 0zm58.71875-143.34375-3.558594-7.132812c-1.023437-2.058594-2.882812-3.574219-5.101562-4.164063-2.222656-.59375-4.585938-.199219-6.5 1.074219l-11.902344 7.9375c-6.570312 4.386719-14.292969 6.726562-22.191406 6.71875h-9.464844c-.058594-17.671875 14.21875-32.046875 31.890625-32.109375 17.675781-.058594 32.050781 14.21875 32.109375 31.894531-2.296875-.558594-4.230469-2.101562-5.28125-4.21875zm-49.253906 20.433594c11.058594.011719 21.867187-3.265625 31.0625-9.40625l4.382812-2.921875c2.519532 4.445313 6.410156 7.953125 11.089844 10v10.328125c0 13.253906-10.746094 24-24 24s-24-10.746094-24-24v-8zm22.535156 48c2.6875.003906 5.367188-.265625 8-.800781v8.800781c.027344 2.277344 1.03125 4.433594 2.761719 5.921875l-10.761719 8.078125-10.761719-8.078125c1.730469-1.488281 2.734375-3.644531 2.761719-5.921875v-8.800781c2.632812.535156 5.3125.804687 8 .800781zm79.558594 42.847656c-2.113282-15.738281-13.3125-28.746094-28.558594-33.183594l-27-7.710937v-10.160156c10.035156-7.492188 15.964844-19.269531 16-31.792969v-8c4.417969 0 8-3.582031 8-8v-8c0-26.507812-21.492188-48-48-48s-48 21.492188-48 48v8c0 4.417969 3.582031 8 8 8v8c.035156 12.523438 5.964844 24.300781 16 31.792969v10.160156l-26.992188 7.710937c-15.25 4.433594-26.449218 17.445313-28.566406 33.183594-35.507812-42.175781-31.933594-104.730468 8.148438-142.585937 40.082031-37.855469 102.738281-37.855469 142.820312 0 40.082032 37.855469 43.65625 100.410156 8.148438 142.585937zm0 0" data-original="#000000" class="active-path" data-old_color="#000000" fill="#B4B4B4"/><path d="m232 320h16v16h-16zm0 0" data-original="#000000" class="active-path" data-old_color="#000000" fill="#B4B4B4"/><path d="m376 320h16v16h-16zm0 0" data-original="#000000" class="active-path" data-old_color="#000000" fill="#B4B4B4"/><path d="m328 464h-288c-13.253906 0-24-10.746094-24-24v-400c0-13.253906 10.746094-24 24-24h224v72c0 3.234375 1.949219 6.152344 4.9375 7.390625s6.429688.550781 8.71875-1.734375l18.34375-18.34375 18.34375 18.34375c2.289062 2.285156 5.730469 2.972656 8.71875 1.734375s4.9375-4.15625 4.9375-7.390625v-72c13.253906 0 24 10.746094 24 24v160h16v-160c-.027344-22.082031-17.917969-39.9726562-40-40h-288c-22.082031.0273438-39.9726562 17.917969-40 40v400c.0273438 22.082031 17.917969 39.972656 40 40h288c11.480469 0 22.40625-4.933594 30-13.542969l-12-10.585937c-4.558594 5.164062-11.113281 8.125-18 8.128906zm-16-395.3125-10.34375-10.34375c-3.125-3.121094-8.1875-3.121094-11.3125 0l-10.34375 10.34375v-52.6875h32zm0 0" data-original="#000000" class="active-path" data-old_color="#000000" fill="#B4B4B4"/><path d="m48 48h32v16h-32zm0 0" data-original="#000000" class="active-path" data-old_color="#000000" fill="#B4B4B4"/><path d="m96 48h80v16h-80zm0 0" data-original="#000000" class="active-path" data-old_color="#000000" fill="#B4B4B4"/><path d="m48 80h128v16h-128zm0 0" data-original="#000000" class="active-path" data-old_color="#000000" fill="#B4B4B4"/><path d="m48 144h208v16h-208zm0 0" data-original="#000000" class="active-path" data-old_color="#000000" fill="#B4B4B4"/><path d="m272 144h48v16h-48zm0 0" data-original="#000000" class="active-path" data-old_color="#000000" fill="#B4B4B4"/><path d="m48 192h160v16h-160zm0 0" data-original="#000000" class="active-path" data-old_color="#000000" fill="#B4B4B4"/><path d="m48 240h128v16h-128zm0 0" data-original="#000000" class="active-path" data-old_color="#000000" fill="#B4B4B4"/><path d="m48 288h112v16h-112zm0 0" data-original="#000000" class="active-path" data-old_color="#000000" fill="#B4B4B4"/><path d="m48 368h80v16h-80zm0 0" data-original="#000000" class="active-path" data-old_color="#000000" fill="#B4B4B4"/><path d="m48 400h80v16h-80zm0 0" data-original="#000000" class="active-path" data-old_color="#000000" fill="#B4B4B4"/>
	</symbol>

	<symbol id="icon_help" viewBox="0 0 52 52">
		<path d="M26,0C11.663,0,0,11.663,0,26s11.663,26,26,26s26-11.663,26-26S40.337,0,26,0z M26,50C12.767,50,2,39.233,2,26   S12.767,2,26,2s24,10.767,24,24S39.233,50,26,50z" data-original="#000000" class="active-path" data-old_color="#000000" fill="#B4B4B4"/>
	<path d="M26,37c-0.553,0-1,0.447-1,1v2c0,0.553,0.447,1,1,1s1-0.447,1-1v-2C27,37.447,26.553,37,26,37z" data-original="#000000" class="active-path" data-old_color="#000000" fill="#B4B4B4"/>
	<path d="M26.113,9.001C26.075,9.001,26.037,9,25.998,9c-2.116,0-4.106,0.815-5.615,2.304C18.847,12.819,18,14.842,18,17   c0,0.553,0.447,1,1,1s1-0.447,1-1c0-1.618,0.635-3.136,1.787-4.272c1.153-1.137,2.688-1.765,4.299-1.727   c3.161,0.044,5.869,2.752,5.913,5.913c0.029,2.084-0.999,4.002-2.751,5.132C26.588,23.762,25,26.794,25,30.158V33   c0,0.553,0.447,1,1,1s1-0.447,1-1v-2.842c0-2.642,1.276-5.105,3.332-6.432c2.335-1.506,3.706-4.063,3.667-6.84   C33.939,12.599,30.401,9.061,26.113,9.001z" data-original="#000000" class="active-path" data-old_color="#000000" fill="#B4B4B4"/>
	</symbol>

	<symbol id="icon_send" viewBox="0 0 465.882 465.882">
		<path d="m465.882 0-465.882 262.059 148.887 55.143 229.643-215.29-174.674 235.65.142.053-.174-.053v128.321l83.495-97.41 105.77 39.175z" data-original="#000000" class="active-path" data-old_color="#000000" fill="#B4B4B4"/>
	</symbol>

	<symbol id="icon_twitter" viewBox="0 0 449.956 449.956">
		<path d="M449.956,85.657c-17.702,7.614-35.408,12.369-53.102,14.279c19.985-11.991,33.503-28.931,40.546-50.819   c-18.281,10.847-37.787,18.268-58.532,22.267c-18.274-19.414-40.73-29.125-67.383-29.125c-25.502,0-47.246,8.992-65.24,26.98   c-17.984,17.987-26.977,39.731-26.977,65.235c0,6.851,0.76,13.896,2.284,21.128c-37.688-1.903-73.042-11.372-106.068-28.407   C82.46,110.158,54.433,87.46,31.403,59.101c-8.375,14.272-12.564,29.787-12.564,46.536c0,15.798,3.711,30.456,11.138,43.97   c7.422,13.512,17.417,24.455,29.98,32.831c-14.849-0.572-28.743-4.475-41.684-11.708v1.142c0,22.271,6.995,41.824,20.983,58.674   c13.99,16.848,31.645,27.453,52.961,31.833c-7.995,2.091-16.086,3.138-24.269,3.138c-5.33,0-11.136-0.475-17.416-1.42   c5.9,18.459,16.75,33.633,32.546,45.535c15.799,11.896,33.691,18.028,53.677,18.418c-33.498,26.262-71.66,39.393-114.486,39.393   c-8.186,0-15.607-0.373-22.27-1.139c42.827,27.596,90.03,41.394,141.612,41.394c32.738,0,63.478-5.181,92.21-15.557   c28.746-10.369,53.297-24.267,73.665-41.686c20.362-17.415,37.925-37.448,52.674-60.097c14.75-22.651,25.738-46.298,32.977-70.946   c7.23-24.653,10.848-49.344,10.848-74.092c0-5.33-0.096-9.325-0.287-11.991C421.785,120.202,437.202,104.306,449.956,85.657z" data-original="#000000" class="active-path" data-old_color="#000000" fill="#B4B4B4"/>
	</symbol>

	<symbol id="icon_leader" viewBox="0 0 496 496.00026">
		<path d="m488 192v-7.855469c0-17.761719-11.929688-33.578125-29.007812-38.472656l-26.992188-7.703125v-2.136719c9.96875-7.511719 16-19.328125 16-31.832031v-14.625c0-21.167969-15.855469-39.253906-36.097656-41.183594-11.261719-1.109375-22.484375 2.640625-30.804688 10.207032-8.320312 7.5625-13.097656 18.363281-13.097656 29.601562v16c0 12.503906 6.03125 24.320312 16 31.832031v2.136719l-26.992188 7.710938c-4.816406 1.375-9.160156 3.695312-13.007812 6.617187v-8.296875h-16v-7.855469c0-17.761719-11.929688-33.578125-29.007812-38.472656l-26.992188-7.703125v-2.136719c9.96875-7.511719 16-19.328125 16-31.832031v-14.625c0-21.167969-15.855469-39.253906-36.097656-41.183594-11.238282-1.109375-22.484375 2.640625-30.804688 10.207032-8.320312 7.5625-13.097656 18.363281-13.097656 29.601562v16c0 12.503906 6.03125 24.320312 16 31.832031v2.136719l-26.992188 7.710938c-17.078124 4.878906-29.007812 20.703124-29.007812 38.464843v7.855469h-16v56.289062c-3.847656-2.921874-8.191406-5.242187-13.007812-6.625l-26.992188-7.695312v-2.136719c9.96875-7.511719 16-19.328125 16-31.832031v-14.625c0-21.167969-15.855469-39.253906-36.097656-41.183594-11.246094-1.109375-22.484375 2.640625-30.804688 10.207032-8.320312 7.5625-13.097656 18.363281-13.097656 29.601562v16c0 12.503906 6.03125 24.320312 16 31.832031v2.136719l-26.992188 7.710938c-17.078124 4.878906-29.007812 20.703124-29.007812 38.464843v7.855469h-8v256h496v-304zm-126.59375-30.9375 38.59375-11.03125v-23.070312l-3.976562-2.3125c-7.527344-4.382813-12.023438-12.105469-12.023438-20.648438v-16c0-6.75 2.863281-13.222656 7.863281-17.769531 5.066407-4.597657 11.632813-6.742188 18.519531-6.125 12.121094 1.160156 21.617188 12.261719 21.617188 25.269531v14.625c0 8.542969-4.496094 16.265625-12.023438 20.648438l-3.976562 2.3125v23.070312l38.59375 11.023438c10.246094 2.9375 17.40625 12.433593 17.40625 23.089843v7.855469h-128v-7.855469c0-10.65625 7.160156-20.152343 17.40625-23.082031zm-161.40625-1.0625h96v150.609375l-48-41.152344-48 41.152344zm-16-23.855469c0-10.65625 7.160156-20.152343 17.40625-23.082031l38.59375-11.03125v-23.070312l-3.976562-2.3125c-7.527344-4.382813-12.023438-12.105469-12.023438-20.648438v-16c0-6.75 2.863281-13.222656 7.863281-17.769531 5.066407-4.597657 11.609375-6.734375 18.519531-6.125 12.121094 1.160156 21.617188 12.261719 21.617188 25.269531v14.625c0 8.542969-4.496094 16.265625-12.023438 20.648438l-3.976562 2.3125v23.070312l38.59375 11.023438c10.246094 2.9375 17.40625 12.433593 17.40625 23.089843v7.855469h-128zm-16 23.855469h16v185.390625l64-54.847656 64 54.847656v-185.390625h16v320h-160zm-144 72.144531c0-10.65625 7.160156-20.152343 17.40625-23.082031l38.59375-11.03125v-23.070312l-3.976562-2.3125c-7.527344-4.382813-12.023438-12.105469-12.023438-20.648438v-16c0-6.75 2.863281-13.222656 7.863281-17.769531 5.066407-4.597657 11.625-6.726563 18.519531-6.125 12.121094 1.160156 21.617188 12.261719 21.617188 25.269531v14.625c0 8.542969-4.496094 16.265625-12.023438 20.648438l-3.976562 2.3125v23.070312l38.59375 11.023438c10.246094 2.9375 17.40625 12.433593 17.40625 23.089843v7.855469h-128zm-8 23.855469h136v224h-136zm464 224h-136v-272h136zm0 0"/><path d="m240 365.335938v98.664062h16v-120h-20l-26.398438 35.199219 12.796876 9.601562zm0 0"/><path d="m434.238281 401.046875-42.238281 35.203125v27.75h64v-16h-48v-4.246094l36.488281-30.410156c7.320313-6.101562 11.511719-15.0625 11.511719-24.582031v-4.761719c0-17.648438-14.351562-32-32-32s-32 14.351562-32 32v8h16v-8c0-8.824219 7.175781-16 16-16s16 7.175781 16 16v4.761719c0 4.75-2.097656 9.238281-5.761719 12.285156zm0 0"/><path d="m104 384c0-17.648438-14.351562-32-32-32h-32v16h32c8.824219 0 16 7.175781 16 16s-7.175781 16-16 16h-16v16h16c8.824219 0 16 7.175781 16 16s-7.175781 16-16 16h-32v16h32c17.648438 0 32-14.351562 32-32 0-9.542969-4.199219-18.136719-10.855469-24 6.65625-5.863281 10.855469-14.457031 10.855469-24zm0 0"/>
	</symbol>

	<symbol id="icon_helped"  viewBox="0 0 52 52">
		<path d="M26,0C11.663,0,0,11.663,0,26s11.663,26,26,26s26-11.663,26-26S40.337,0,26,0z M28,41c0,1.104-0.896,2-2,2s-2-0.896-2-2v-2
	c0-1.104,0.896-2,2-2s2,0.896,2,2V41z M30.874,24.567C29.102,25.711,28,27.853,28,30.158V33c0,1.104-0.896,2-2,2s-2-0.896-2-2
	v-2.842c0-3.706,1.76-7.053,4.706-8.952c1.46-0.942,2.317-2.541,2.293-4.277c-0.036-2.635-2.293-4.892-4.928-4.928
	c-1.366-0.067-2.622,0.492-3.582,1.438C21.529,14.387,21,15.651,21,17c0,1.104-0.896,2-2,2s-2-0.896-2-2
	c0-2.428,0.952-4.703,2.681-6.408C21.378,8.918,23.617,8,25.998,8c0.043,0,0.086,0.001,0.13,0.001
	c4.824,0.067,8.804,4.047,8.871,8.871C35.043,19.996,33.501,22.873,30.874,24.567z"/>
	</symbol>

	<symbol id="icon_list"  viewBox="0 0 463 463">
	<path d="m367.5,32h-57.734c-3.138-9.29-11.93-16-22.266-16h-24.416c-7.41-9.965-19.149-16-31.584-16s-24.174,6.035-31.584,16h-24.416c-10.336,0-19.128,6.71-22.266,16h-57.734c-17.369,0-31.5,14.131-31.5,31.5v368c0,17.369 14.131,31.5 31.5,31.5h272c17.369,0 31.5-14.131 31.5-31.5v-368c0-17.369-14.131-31.5-31.5-31.5zm-214.266,47c3.138,9.29 11.93,16 22.266,16h112c10.336,0 19.128-6.71 22.266-16h42.234v337h-241v-337h42.234zm22.266-48h28.438c2.67,0 5.139-1.42 6.482-3.728 4.473-7.684 12.353-12.272 21.08-12.272s16.607,4.588 21.079,12.272c1.344,2.308 3.813,3.728 6.482,3.728h28.439c4.687,0 8.5,3.813 8.5,8.5v31.981c0,0.007-0.001,0.013-0.001,0.019 0,0.003 0,0.006 0,0.01-0.005,4.682-3.816,8.49-8.5,8.49h-112c-4.68,0-8.488-3.803-8.499-8.481 0-0.007 0.001-0.013 0.001-0.019 0-0.013-0.002-0.026-0.002-0.039v-31.961c0.001-4.687 3.814-8.5 8.501-8.5zm208.5,400.5c0,9.098-7.402,16.5-16.5,16.5h-272c-9.098,0-16.5-7.402-16.5-16.5v-368c0-9.098 7.402-16.5 16.5-16.5h56.5v17h-48.5c-4.143,0-7.5,3.357-7.5,7.5v352c0,4.143 3.357,7.5 7.5,7.5h256c4.143,0 7.5-3.357 7.5-7.5v-352c0-4.143-3.357-7.5-7.5-7.5h-48.5v-17h56.5c9.098,0 16.5,7.402 16.5,16.5v368z"/>
    <path d="m231.5,63c4.143,0 7.5-3.357 7.5-7.5v-16c0-4.143-3.357-7.5-7.5-7.5s-7.5,3.357-7.5,7.5v16c0,4.143 3.357,7.5 7.5,7.5z"/>
    <path d="m239.5,167h48c4.143,0 7.5-3.357 7.5-7.5s-3.357-7.5-7.5-7.5h-48c-4.143,0-7.5,3.357-7.5,7.5s3.357,7.5 7.5,7.5z"/>
    <path d="m239.5,199h80c4.143,0 7.5-3.357 7.5-7.5s-3.357-7.5-7.5-7.5h-80c-4.143,0-7.5,3.357-7.5,7.5s3.357,7.5 7.5,7.5z"/>
    <path d="m162.196,196.804c1.465,1.464 3.385,2.196 5.304,2.196s3.839-0.732 5.304-2.196l40-40c2.929-2.93 2.929-7.678 0-10.607-2.93-2.928-7.678-2.928-10.607,0l-34.697,34.697-18.696-18.697c-2.93-2.928-7.678-2.928-10.607,0-2.929,2.93-2.929,7.678 0,10.607l23.999,24z"/>
    <path d="m239.5,247h48c4.143,0 7.5-3.357 7.5-7.5s-3.357-7.5-7.5-7.5h-48c-4.143,0-7.5,3.357-7.5,7.5s3.357,7.5 7.5,7.5z"/>
    <path d="m239.5,279h80c4.143,0 7.5-3.357 7.5-7.5s-3.357-7.5-7.5-7.5h-80c-4.143,0-7.5,3.357-7.5,7.5s3.357,7.5 7.5,7.5z"/>
    <path d="m162.196,276.804c1.465,1.464 3.385,2.196 5.304,2.196s3.839-0.732 5.304-2.196l40-40c2.929-2.93 2.929-7.678 0-10.607-2.93-2.928-7.678-2.928-10.607,0l-34.697,34.697-18.696-18.697c-2.93-2.928-7.678-2.928-10.607,0-2.929,2.93-2.929,7.678 0,10.607l23.999,24z"/>
    <path d="m239.5,327h48c4.143,0 7.5-3.357 7.5-7.5s-3.357-7.5-7.5-7.5h-48c-4.143,0-7.5,3.357-7.5,7.5s3.357,7.5 7.5,7.5z"/>
    <path d="m239.5,359h80c4.143,0 7.5-3.357 7.5-7.5s-3.357-7.5-7.5-7.5h-80c-4.143,0-7.5,3.357-7.5,7.5s3.357,7.5 7.5,7.5z"/>
    <path d="m162.196,356.804c1.465,1.464 3.385,2.196 5.304,2.196s3.839-0.732 5.304-2.196l40-40c2.929-2.93 2.929-7.678 0-10.607-2.93-2.928-7.678-2.928-10.607,0l-34.697,34.697-18.696-18.697c-2.93-2.928-7.678-2.928-10.607,0-2.929,2.93-2.929,7.678 0,10.607l23.999,24z"/>
	</symbol>

	<symbol id="icon_headphone"  viewBox="0 0 512 512">
		<path d="M486.4,423.96c-50.93-27.008-89.996-42.152-124.772-47.958l3.599-4.948c1.707-1.707,2.56-4.267,1.707-6.827l-7.997-31.987
		c2.898-4.097,5.632-8.333,8.193-12.688c31.8-10.823,47.881-29.118,50.583-56.054c13.968-0.728,26.02-13.195,26.02-27.271v-64
		c0-14.012-11.147-26.429-25.75-27.26C416.104,95.671,394.368-1,256-1C117.629-1,95.895,95.675,94.016,144.97
		c-13.853,0.818-25.749,12.449-25.749,27.256v64c0,14.507,12.8,27.307,28.16,27.307h12.8c4.704,0,9.225-1.352,13.163-3.666
		c4.839,25.685,15.518,50.948,30.674,72.372l-7.997,31.987c0,1.707,0,4.267,1.707,6.827l3.599,4.948
		c-34.776,5.807-73.842,20.95-124.772,47.958C9.387,431.64,0,447.853,0,465.773v36.693C0,507.587,3.413,511,8.533,511h204.8h3.413
		h78.507h3.413h204.8c5.12,0,8.533-3.413,8.533-8.533v-36.693C512,448.707,501.76,432.493,486.4,423.96z M256.047,404.441
		l20.433,46.826h-41.245L256.047,404.441z M229.035,468.333h53.897l4.995,25.6h-64.013L229.035,468.333z M345.6,348.867
		l3.413,15.36l-8.717,11.969c-0.556,0.455-1.071,1.006-1.523,1.684l-35.495,49.147l-11.262,15.464l-23.005-51.761
		c28.058-3.422,53.044-17.722,73.077-38.212C343.272,351.324,344.444,350.111,345.6,348.867z M378.921,295.784
		c4.813-11.711,8.441-23.884,10.735-36.154c3.249,1.968,6.948,3.283,10.936,3.729C399.113,275.421,393.754,286.809,378.921,295.784
		z M425.813,171.373v64c0,5.12-4.267,10.24-10.24,10.24h-12.8c-5.12,0-10.24-4.267-10.24-10.24V229.4v-58.027
		c0-5.12,4.267-10.24,10.24-10.24h12.8C420.693,161.133,425.813,165.4,425.813,171.373z M256,16.067
		c52.597,0,141.118,17.17,144.924,128.992c-3.576,0.367-7.001,1.454-10.099,3.124C380.441,83.202,323.787,33.133,256,33.133
		c-67.778,0-124.426,50.055-134.821,115.022c-3.052-1.648-6.46-2.737-10.104-3.099C114.883,33.237,203.404,16.067,256,16.067z
		 M118.613,235.373c0,5.12-4.267,10.24-10.24,10.24h-12.8c-5.12,0-10.24-4.267-10.24-10.24v-64c0-5.12,4.267-10.24,10.24-10.24
		h12.8c5.12,0,10.24,4.267,10.24,10.24V235.373z M136.533,169.667C136.533,103.96,190.293,50.2,256,50.2
		s119.467,53.76,119.467,119.467V229.4c0,28.232-7.35,54.079-19.266,75.887c-20.368,5.908-49.669,9.446-91.667,9.446
		c-5.12,0-8.533,3.413-8.533,8.533s3.413,8.533,8.533,8.533c30.745,0,56.458-1.888,77.515-5.835
		c-0.523,0.523-1.046,1.046-1.569,1.569c-4.293,5.724-8.824,10.943-13.558,15.649c-20.093,18.719-44.058,30.058-67.152,31.181
		c-1.162-0.499-2.465-0.75-3.77-0.75c-1.312,0-2.494,0.257-3.554,0.761c-14.136-0.648-28.603-5.129-42.316-12.793
		c-13.893-7.982-26.962-19.489-38.61-34.048c-0.853-0.853-1.707-1.707-2.56-2.56l-0.498-0.166
		c-19.164-25.134-31.929-58.199-31.929-95.407V169.667z M242.988,390.73l-23.005,51.761l-11.262-15.464l-35.495-49.147
		c-0.272-0.272-0.572-0.541-0.884-0.806l-9.356-12.847l3.413-15.36c1.155,1.244,2.327,2.456,3.509,3.649
		C189.942,373.006,214.93,387.307,242.988,390.73z M17.067,465.773c0-11.093,5.973-21.333,16.213-26.453
		c54.393-28.896,93.548-43.399,128.428-47.731l50.922,70.018l-6.465,32.326H17.067V465.773z M494.933,493.933H305.835
		l-6.465-32.326l51.474-70.777c34.757,5.245,74.615,19.737,127.877,47.636c10.24,5.973,16.213,16.213,16.213,27.307V493.933z"/>
	</symbol>

		<symbol id="icon_well"  viewBox="0 0 229.238 229.238">
		<path d="M220.228,172.242c-20.606-17.82-39.675-42.962-39.675-105.734c0-36.353-29.576-65.928-65.93-65.928
	c-36.359,0-65.939,29.575-65.939,65.928c0,62.829-19.062,87.946-39.686,105.751C3.28,177.239,0,184.411,0,191.937
	c0,4.142,3.358,7.5,7.5,7.5h71.175c3.472,16.663,18.268,29.222,35.944,29.222s32.473-12.558,35.944-29.222h71.175
	c4.142,0,7.5-3.358,7.5-7.5C229.238,184.35,225.95,177.167,220.228,172.242z M114.619,213.659c-9.34,0-17.321-5.929-20.381-14.222
	H135C131.94,207.73,123.959,213.659,114.619,213.659z M17.954,184.437c0.273-0.296,0.564-0.578,0.871-0.845
	c31.443-27.146,44.858-62.162,44.858-117.084c0-28.082,22.852-50.928,50.939-50.928c28.083,0,50.93,22.846,50.93,50.928
	c0,54.872,13.417,89.887,44.876,117.091c0.307,0.265,0.598,0.544,0.872,0.838H17.954z"/>
	</symbol>

	<symbol id="icon_close" viewBox="0 0 47.971 47.971">
		<path d="M28.228,23.986L47.092,5.122c1.172-1.171,1.172-3.071,0-4.242c-1.172-1.172-3.07-1.172-4.242,0L23.986,19.744L5.121,0.88
		c-1.172-1.172-3.07-1.172-4.242,0c-1.172,1.171-1.172,3.071,0,4.242l18.865,18.864L0.879,42.85c-1.172,1.171-1.172,3.071,0,4.242
		C1.465,47.677,2.233,47.97,3,47.97s1.535-0.293,2.121-0.879l18.865-18.864L42.85,47.091c0.586,0.586,1.354,0.879,2.121,0.879
		s1.535-0.293,2.121-0.879c1.172-1.171,1.172-3.071,0-4.242L28.228,23.986z"/>
	</symbol>


	
</defs>
</svg>