<svg id="Layer_1" data-name="Layer 1" xmlns="http://www.w3.org/2000/svg" viewBox="0 0 256 66.97"><defs><style>.cls-1{fill:#f70213;}.cls-2{fill:#f60214;}.cls-3{fill:#c10a18;}.cls-4{fill:#980810;}.cls-5{fill:#850710;}.cls-6{fill:#f90211;}.cls-7{fill:#4c0b10;}.cls-8{fill:#9b0913;}.cls-9{fill:#74080f;}.cls-10{fill:#ae0a15;}.cls-11{fill:#48080d;}.cls-12{fill:#fefefe;}.cls-13{fill:#fdfdfd;}.cls-14{fill:#f5f5f5;}.cls-15{fill:#f7f7f7;}.cls-16{fill:#fbfbfb;}.cls-17{fill:#fafafa;}.cls-18{fill:#eee;}.cls-19{fill:#f9f9f9;}.cls-20{fill:#373737;}.cls-21{fill:#fff;}.cls-22{fill:red;}</style></defs><title>logo</title><path class="cls-1" d="M17.8,30.65c.25.1.27.33.37.51a1.79,1.79,0,0,0,1.6,1c1,.05,1.86.51,2.86.6a1.56,1.56,0,0,1,1,.68c1.41,1.89,2.58,3.92,4.07,5.78a.9.9,0,0,0,.8.39c1.88,0,1.87,0,2.16-1.58.22-1.17.45-2.34.7-3.5a1,1,0,0,0-.11-.75c-1.61-3.12-3.2-6.25-4.82-9.37a30.14,30.14,0,0,0-1.51-2.65,2.18,2.18,0,0,1-.35-1.19v-4A2.47,2.47,0,0,0,23.93,15c-1.41-1.8-2.74-3.66-4.1-5.49-.16-.22,0-.33.09-.5a9.67,9.67,0,0,1,2-2.71A12.21,12.21,0,0,1,23,5c.23-.18.08-.34-.2-.35a6.17,6.17,0,0,0-.86,0,13.41,13.41,0,0,0-5,1.06,15.43,15.43,0,0,0-4.55,3.38A21.44,21.44,0,0,0,8.58,15a4.37,4.37,0,0,0-.47,1.54h0c-.55.18-.59,0-.54-.46a9.53,9.53,0,0,1,.68-2.51A17.12,17.12,0,0,1,11.59,8.2a8.31,8.31,0,0,1,2.18-2,7.79,7.79,0,0,1,1.55-1.13h0a15.45,15.45,0,0,1,4-1.5c1.1-.23,2.2-.54,3.31-.77a12.72,12.72,0,0,1,3.51-.59c.17,0,.38-.08.49.11s0,.3-.16.42c-.28.3-.42.7-.81.93C24.33,5.33,23,7,21.7,8.54a.83.83,0,0,0-.06,1.17l.06.06c1.21,1.57,2.35,3.17,3.55,4.75a1.13,1.13,0,0,1,.27.77,9.84,9.84,0,0,1,0,1.33c-.21,2.07.65,3.86,1.61,5.69,1.48,2.87,3.1,5.69,4.32,8.69.28.69.71,1.32,1,2a2.17,2.17,0,0,1,.23,1.52c-.5,2.18-1,4.37-1.43,6.55-.11.54-.4.76-1,.67a7.61,7.61,0,0,0-1.72-.1,1.63,1.63,0,0,1-1.73-1,29.32,29.32,0,0,0-3.42-5.31A2.81,2.81,0,0,0,22,34.5a10.51,10.51,0,0,1-2.69-.78,2.06,2.06,0,0,0-.6-.12c-.48-.3-.71-.27-.8.32a30.62,30.62,0,0,0-.22,4.88,1.16,1.16,0,0,1-.26,1,.29.29,0,0,1-.27-.31h0c-.2-3-.2-5.92-.17-8.88,0-.23,0-.5.37-.51C17.91,30,17.59,30.47,17.8,30.65Z"/><path class="cls-2" d="M6,40.06l.15.15a3.08,3.08,0,0,0,.48,1c0,.22,0,.45.31.57.2.45.63.78.82,1.24a18.84,18.84,0,0,0,6,5.18,11.25,11.25,0,0,1,2.35,1.94A29.24,29.24,0,0,1,19.28,54c.66,1,1,2.18,1.65,3.18a3.08,3.08,0,0,0,.48,1h0c.14.24.15.48-.18.55s-.29-.22-.35-.38-.11-.25-.28-.29-.12-.28-.15-.43a9.24,9.24,0,0,0-1.26-2c-.4-1.22-1.53-2-2.41-2.88a18.43,18.43,0,0,0-3.5-2.59C12.1,49.41,11,48.63,9.8,47.84A14.23,14.23,0,0,1,5.89,43.4,12.18,12.18,0,0,1,4,37.67a32.53,32.53,0,0,1-.12-9.45,13.46,13.46,0,0,0,.22-1.79c0-.14,0-.3.22-.31a.31.31,0,0,1,.3.27,4.51,4.51,0,0,1,0,.9,64.06,64.06,0,0,0,.15,7.33A8.36,8.36,0,0,0,5,36.12v.13a13.8,13.8,0,0,0,.45,2.39h0A11.59,11.59,0,0,0,6,40.06Z"/><path class="cls-2" d="M24.23,59.54c-.62-1.72-1.23-3.44-1.86-5.16a15.39,15.39,0,0,0-2.07-3.69,32.75,32.75,0,0,0-5.11-5.15c-1.88-1.67-4.16-3-5.71-4.94-.07-.36-.43-.55-.6-.86s-.51-.49-.12-.69.58.15.71.44l.79.56a6.66,6.66,0,0,0,1.89,1.53h0c.48,0,.66.48,1.09.57h0c.46.34,1,.64,1.42,1h0a19.88,19.88,0,0,1,2.66,2c1.28,1.47,2.86,2.71,3.89,4.37A21.71,21.71,0,0,1,23.76,55c.15.54.31,1.07.47,1.61.25.28.13.67.32,1h0a11.92,11.92,0,0,1,.59,3.07c0,.19.05.41-.21.46s-.24-.21-.31-.37C24.43,60.35,24.39,59.93,24.23,59.54Z"/><path class="cls-3" d="M8.21,13.66c0,.86-.6,1.61-.55,2.5,0,.34,0,.48.41.47a4,4,0,0,1-.4,1.48,35,35,0,0,0-.88,7.06,20.58,20.58,0,0,0-.07,2.22c0,.29.07.78-.42.74s-.27-.48-.24-.75c.1-.88,0-1.76.05-2.64,0-.23-.07-.46.08-.68a26.32,26.32,0,0,1,.48-4.85C7.16,17.36,7.25,15.41,8.21,13.66Z"/><path class="cls-4" d="M17.8,30.65c-.17-.08-.15-.23-.18-.36s-.08-.18-.21-.17a.22.22,0,0,0-.23.21h0v5c0,1.43,0,2.86.1,4.29a.74.74,0,0,0,.33-.71c.06-1.72.11-3.44.18-5.16,0-.23-.17-.59.23-.66a.65.65,0,0,1,.72.52c-.95-.1-.71.59-.76,1a43.64,43.64,0,0,0-.2,5.24,11.52,11.52,0,0,1-.21,1.85A3.25,3.25,0,0,1,17,39.87c-.05-2.37-.1-4.75-.13-7.13a44.28,44.28,0,0,0-.14-4.61.88.88,0,0,1,.37-.92A33.27,33.27,0,0,1,17.8,30.65Z"/><path class="cls-5" d="M4.91,36.12a7.75,7.75,0,0,1-.43-2.38V27a1.21,1.21,0,0,0-.21-.94c-.16,1.14-.35,2.11-.4,3.09-.1,1.88-.11,3.77-.17,5.66,0,1,.48,1.87.3,2.84a4.08,4.08,0,0,1-.43-2,54.52,54.52,0,0,1,.12-7c.23-1.89.54-3.77.81-5.66.12-.22,0-.46.07-.69a.29.29,0,0,1,.25-.3c.21,0,.2.16.19.3a13.07,13.07,0,0,1,0,1.77c0,2.26-.5,4.49-.36,6.76.1,1.49.13,3,.33,4.46A5.69,5.69,0,0,1,4.91,36.12Z"/><path class="cls-6" d="M21.86,19.59c1.35,0,1.91.8,1.34,1.95-.24.48-1.73.44-2.12-.07a2,2,0,0,1-.29-.57C20.3,19.6,20.31,19.6,21.86,19.59Z"/><path class="cls-7" d="M6.19,24.06v4H6.4c.53-.9,0-1.94.39-2.87a32.67,32.67,0,0,1-.42,6.17,8.55,8.55,0,0,1-.1,1.6,1.75,1.75,0,0,1-.37-1.25c-.15-2.44.13-4.88.13-7.33A.88.88,0,0,1,6.19,24.06Z"/><path class="cls-8" d="M24.23,59.54c.43.41.29,1,.7,1.65a3.31,3.31,0,0,0-.07-1.92,3.64,3.64,0,0,1-.32-1.69,7.7,7.7,0,0,1,.65,2.4c.11,1.08.43,2.14.44,3.23v.49c0,.16,0,.25-.17.26a.24.24,0,0,1-.25-.23h0C25.06,62.3,24.35,61,24.23,59.54Z"/><path class="cls-9" d="M9.47,39.49c-.11-.09-.21-.2-.33-.28s-.25-.15-.35-.06,0,.22.05.35c.17.39.77.58.64,1.1a8.92,8.92,0,0,1-2.15-3.67,21,21,0,0,0,2.09,2.23C9.49,39.21,9.46,39.38,9.47,39.49Z"/><path class="cls-10" d="M20.6,58c.5-.06.27.48.6.58.26-.08.16-.3.21-.46a7.34,7.34,0,0,1,.95,2.52c.09.15.12.33-.05.43a.28.28,0,0,1-.39-.12.08.08,0,0,1,0,0A23.68,23.68,0,0,0,20.6,58Z"/><path class="cls-11" d="M21.9,60.93c.42.28.43,0,.46-.27a5.09,5.09,0,0,1,.7,2A3.85,3.85,0,0,1,21.9,60.93Z"/><path class="cls-3" d="M8.07,16.63c0-.55-.14-1.14.47-1.54A4.83,4.83,0,0,1,8.07,16.63Z"/><path class="cls-12" d="M75.51,23.2a9.72,9.72,0,0,0-2.9-4.65,3.81,3.81,0,0,0-5.14,0A8.62,8.62,0,0,0,65,22.09,23,23,0,0,0,63.37,31a25,25,0,0,0,.84,6.5A12,12,0,0,0,67.1,43a4,4,0,0,0,5.65.26,1.8,1.8,0,0,0,.2-.19,8.57,8.57,0,0,0,2.19-3.31A24.24,24.24,0,0,0,75.51,23.2ZM70.17,35.79c-1,0-1.86-2.14-1.86-4.79s.83-4.8,1.86-4.8S72,28.35,72,31,71.19,35.79,70.17,35.79Z"/><path class="cls-13" d="M90.53,46.62c-3.22-7.54-6.69-14.92-9.78-22.55a.77.77,0,0,0-.18.71V43.46c0,.8-.56,1.16-1.32.86A.37.37,0,0,1,79,44V15.8a.74.74,0,0,1,.2-.51Q84.2,27,89.31,38.76h.2v-.87q-.08-9.64-.13-19.3c0-.4-.12-.81.54-.9s.87,0,.86.69V46.23C90.77,46.3,90.83,46.44,90.53,46.62Z"/><path class="cls-13" d="M60.21,25.68l.6-2.11c.75,3.06.67,6-1.2,8.62A3.86,3.86,0,0,0,59,36.26a70.59,70.59,0,0,1,2.06,7.12c.21.76-.28.68-.65.81s-.85.17-1-.46c-.53-2.15-1.09-4.29-1.64-6.44-.22-.85-.46-1.7-.67-2.56-.12-.47-.33-.71-.87-.67H53.8c-.5,0-.63-.16-.6-.63,0-.72-.22-1.67.14-2.11s1.37-.11,2.09-.15h.94c.59-.06,1.31.29,1.73-.19a5.11,5.11,0,0,0,1.34-2.44A15.94,15.94,0,0,0,59,22.13a2,2,0,0,0-2.17-1.66h-5.1c-.71,0-.93.16-.93.9V43.5c0,.36.16.8-.5.85s-.81-.2-.81-.84V19.27c0-1.47,0-1.47,1.49-1.47,2,0,4,.1,6,0a2.61,2.61,0,0,1,2.57,1.63,6,6,0,0,1,.58,4.81A2.44,2.44,0,0,0,60.21,25.68Z"/><path class="cls-13" d="M35.38,21V18.5c0-.66.21-.77.8-.76h8.74a5.79,5.79,0,0,1,.18,3.06c0,.23-.26.29-.49.29H35.52C35.46,21.11,35.42,21.06,35.38,21Z"/><path class="cls-14" d="M42,35.26v-8.4c0-.43-.06-.81.61-.8s.77.26.77.85V43.54c0,.55-.11.78-.72.8s-.65-.29-.65-.77Q42,39.41,42,35.26Z"/><path class="cls-15" d="M40.72,35.27v8.3c0,.49,0,.77-.66.77s-.64-.32-.64-.78V26.87c0-.53.06-.82.71-.81s.6.4.59.83Z"/><path class="cls-16" d="M81.67,44.28a28.06,28.06,0,0,1-.07-3.43V34.59c0-.6.32-.56.69-.52s.82-.22.81.49v9.38a1,1,0,0,1-.14.35A1.25,1.25,0,0,1,81.67,44.28Z"/><path class="cls-17" d="M194.32,43.15a21.11,21.11,0,0,0,0,2.25c.06.54-.25.77-1.57.73-2.58-.06-2.09.12-2.11-1,0-1.48.05-3,0-4.43,0-.62.5-.75,1.76-.74s2,0,2,.74a19.38,19.38,0,0,0,0,2.41Z"/><path class="cls-18" d="M52.29,31.25q.36,4.44.72,8.83c.1,1.2.2,2.4.34,3.59,0,.43,0,.67-.48.65s-.8.16-.8-.51V31.57C52.06,31.45,52,31.3,52.29,31.25Z"/><path class="cls-19" d="M45.24,17.91a4.19,4.19,0,0,1,1.83-.11c.3,0,.34.25.34.51v2.34c0,.34-.12.48-.45.47l-1.71-.07A6.94,6.94,0,0,1,45.24,17.91Z"/><path class="cls-20" d="M45.24,17.91v3.14a1.59,1.59,0,0,1-.83.19H36.06c-.23,0-.54.13-.68-.2,2.45.13,4.91,0,7.37,0,.71,0,1.68.33,2.08-.16s.11-1.34.11-2.05V17.74Z"/><path class="cls-21" d="M209,26h2.55v6.66H209Q207.94,29,205.25,29a3.7,3.7,0,0,0-3.36,1.89,8.77,8.77,0,0,0-1.13,4.53,7.67,7.67,0,0,0,1.2,4.47,3.61,3.61,0,0,0,3,1.73,3.47,3.47,0,0,0,2.67-1.3,7.1,7.1,0,0,0,1.54-3.59l3,1.78q-1.71,6.59-7.48,6.59a7.22,7.22,0,0,1-6.15-2.75,11.15,11.15,0,0,1-2.08-7,12,12,0,0,1,1.08-5.24,8,8,0,0,1,2.9-3.38,7.45,7.45,0,0,1,4-1.13A6.28,6.28,0,0,1,209,27.42Z"/><path class="cls-21" d="M228.61,28.49a8.14,8.14,0,0,0-11.48-.86h0a8.53,8.53,0,0,0-.85.85,10.83,10.83,0,0,0-2.27,6.9,11,11,0,0,0,2.18,6.82,7.3,7.3,0,0,0,6.23,2.91,7.44,7.44,0,0,0,6.16-2.83,10.69,10.69,0,0,0,2.25-6.9A10.79,10.79,0,0,0,228.61,28.49ZM222.44,38.8c-1.19,0-2.16-1.53-2.16-3.41s1-3.4,2.16-3.4,2.17,1.52,2.17,3.4S223.64,38.8,222.44,38.8Z"/><path class="cls-21" d="M232.45,44.87v-3.2h2V29.14h-2V26h7.6l3.32,11,3.34-11h7.73v3.19h-1.95V41.67h1.95v3.2h-7.61v-3.2h1.83V29.14h-.36l-4.69,15.73H242l-4.74-15.73h-.36V41.67h2v3.2Z"/><path class="cls-22" d="M94.25,43.44V17.72h4.42V27.84h8.66V17.72h4.41V43.44h-4.41V32.19H98.67V43.44Z"/><path class="cls-22" d="M114.09,33.86a11.49,11.49,0,0,1,1-4.76A7.77,7.77,0,0,1,118,25.6a7.56,7.56,0,0,1,4.21-1.21,7.33,7.33,0,0,1,5.9,2.74,10.46,10.46,0,0,1,2.3,6.94,10.57,10.57,0,0,1-2.32,7,7.31,7.31,0,0,1-5.85,2.78,8.19,8.19,0,0,1-4.15-1.16,7.37,7.37,0,0,1-3-3.39A13,13,0,0,1,114.09,33.86Zm4.3.26a6.88,6.88,0,0,0,1.12,4.25,3.33,3.33,0,0,0,4.61.9h0a3.5,3.5,0,0,0,.9-.9,7,7,0,0,0,1.12-4.28A6.83,6.83,0,0,0,125,29.88a3.3,3.3,0,0,0-4.57-.94,3.5,3.5,0,0,0-.94.94A6.82,6.82,0,0,0,118.39,34.12Z"/><path class="cls-22" d="M136.53,43.44h-4.2V24.81h3.9v2.65A7.58,7.58,0,0,1,138,25a3,3,0,0,1,1.81-.59,4.72,4.72,0,0,1,2.76.93l-1.3,4.29a3.34,3.34,0,0,0-2-.8,2.11,2.11,0,0,0-1.49.57,4,4,0,0,0-1,2.06,33.37,33.37,0,0,0-.35,6.24Z"/><path class="cls-22" d="M150.52,31.75a13.6,13.6,0,0,1-3.91-1.38,1.15,1.15,0,0,1-.42-.9,1.23,1.23,0,0,1,.48-1,4,4,0,0,1,2.37-.54,3.11,3.11,0,0,1,2,.58,2.63,2.63,0,0,1,.6.73H156a6.5,6.5,0,0,0-2.16-3.61A7.8,7.8,0,0,0,149,24.39q-3.42,0-5,1.64a5.55,5.55,0,0,0-1.63,4.07,5.08,5.08,0,0,0,1.88,4.2c.91.72,3.05,1.52,6.44,2.4a3.21,3.21,0,0,1,1.4.65,1.4,1.4,0,0,1,.3.93,1.7,1.7,0,0,1-.56,1.32,3.74,3.74,0,0,1-2.44.7,3.31,3.31,0,0,1-2.3-.75A3.79,3.79,0,0,1,146,37.37l-4.21.75a7.17,7.17,0,0,0,2.47,4.19,7.88,7.88,0,0,0,5.13,1.55A7.33,7.33,0,0,0,154.7,42a6.08,6.08,0,0,0,1.82-4.41A4.91,4.91,0,0,0,155.2,34,10.68,10.68,0,0,0,150.52,31.75Z"/><path class="cls-22" d="M168.15,37.51l4.18.82a8.11,8.11,0,0,1-2.55,4.12,7.45,7.45,0,0,1-10.4-1.67.61.61,0,0,0-.07-.1,12.12,12.12,0,0,1-1.57-6.42A11.53,11.53,0,0,1,159.8,27a6.36,6.36,0,0,1,5.2-2.61,6.6,6.6,0,0,1,5.59,2.74c1.33,1.83,2,4.64,2,8.41H162A5.55,5.55,0,0,0,163,39a2.93,2.93,0,0,0,2.42,1.22,2.35,2.35,0,0,0,1.65-.63A4.06,4.06,0,0,0,168.15,37.51Zm.24-5a5.34,5.34,0,0,0-.94-3.26,2.74,2.74,0,0,0-3.82-.58h0a2.65,2.65,0,0,0-.62.63,5.13,5.13,0,0,0-.88,3.2Z"/><path class="cls-22" d="M182.08,31.75a13.6,13.6,0,0,1-3.91-1.38,1.15,1.15,0,0,1-.42-.9,1.23,1.23,0,0,1,.48-1,4,4,0,0,1,2.37-.54,3.11,3.11,0,0,1,2,.58,2.42,2.42,0,0,1,.61.74h4.29a6.38,6.38,0,0,0-2.16-3.62,7.8,7.8,0,0,0-4.84-1.24c-2.27,0-4,.55-5,1.64a5.55,5.55,0,0,0-1.63,4.07,5.08,5.08,0,0,0,1.88,4.2c.91.72,3.05,1.52,6.44,2.4a3.21,3.21,0,0,1,1.4.65,1.4,1.4,0,0,1,.3.93,1.7,1.7,0,0,1-.55,1.32,3.77,3.77,0,0,1-2.45.7,3.31,3.31,0,0,1-2.3-.75,3.79,3.79,0,0,1-1.09-2.18l-4.21.75a7.17,7.17,0,0,0,2.47,4.19,7.88,7.88,0,0,0,5.13,1.55A7.31,7.31,0,0,0,186.26,42a6.08,6.08,0,0,0,1.82-4.41A4.91,4.91,0,0,0,186.76,34,10.68,10.68,0,0,0,182.08,31.75Z"/><polygon points="180.44 24.39 180.44 27.93 180.13 27.94 180.13 24.39 180.44 24.39"/><polygon points="180.75 43.86 180.75 40.3 180.44 40.28 180.44 43.85 180.75 43.86"/><polygon points="180.59 31.34 180.59 36.27 180.28 36.19 180.28 31.24 180.59 31.34"/><polygon points="165.04 24.39 165.04 28.17 164.73 28.21 164.73 24.39 165.04 24.39"/><polygon points="165.35 43.86 165.35 40.18 165.04 40.14 165.04 43.85 165.35 43.86"/><rect x="164.88" y="32.53" width="0.31" height="3.03"/><rect x="102.73" y="27.83" width="0.31" height="4.36"/><rect x="114.09" y="34.04" width="4.3" height="0.31"/><rect x="126.13" y="34.04" width="4.32" height="0.31"/><polygon points="116.45 41.35 116.39 27.05 116.08 27.44 116.14 41 116.45 41.35"/><polygon points="132.33 32.48 141.96 24.92 141.66 24.76 132.33 32.09 132.33 32.48"/><polygon points="148.89 24.39 148.89 27.93 148.59 27.94 148.59 24.39 148.89 24.39"/><polygon points="149.2 43.86 149.2 40.3 148.89 40.28 148.89 43.85 149.2 43.86"/><polygon points="149.05 31.34 149.05 36.27 148.74 36.19 148.74 31.24 149.05 31.34"/><path class="cls-21" d="M50,58V51.6h2.19a3.87,3.87,0,0,1,.94.1,2,2,0,0,1,.69.31,1.29,1.29,0,0,1,.44.54,1.87,1.87,0,0,1,.15.78,1.46,1.46,0,0,1-.23.79,1.55,1.55,0,0,1-.7.54,1.52,1.52,0,0,1,.48.22,1.37,1.37,0,0,1,.34.34,1.35,1.35,0,0,1,.2.42,1.61,1.61,0,0,1,.07.49,2.09,2.09,0,0,1-.15.81,1.6,1.6,0,0,1-.44.58,2,2,0,0,1-.7.36,3.39,3.39,0,0,1-.93.11Zm1.11-3.7h1.09a1.28,1.28,0,0,0,.81-.23.81.81,0,0,0,.3-.67.82.82,0,0,0-.27-.69,1.38,1.38,0,0,0-.85-.21H51.13Zm0,.82v2h1.24a1.73,1.73,0,0,0,.48-.07,1.19,1.19,0,0,0,.35-.2,1,1,0,0,0,.21-.31,1.23,1.23,0,0,0-.18-1.15,1.07,1.07,0,0,0-.81-.27Z"/><path class="cls-21" d="M59.44,55.14H56.81v2h3.07V58H55.7V51.6h4.15v.89h-3v1.77h2.63Z"/><path class="cls-21" d="M65.5,52.49h-2V58H62.4v-5.5h-2V51.6H65.5Z"/><path class="cls-21" d="M68,56.27a1.36,1.36,0,0,1,.09-.51,1.61,1.61,0,0,1,.25-.44,2.27,2.27,0,0,1,.38-.38c.14-.12.3-.24.48-.37-.1-.13-.2-.25-.28-.37a3.35,3.35,0,0,1-.21-.36,2.09,2.09,0,0,1-.13-.35,1.36,1.36,0,0,1-.05-.36,1.83,1.83,0,0,1,.12-.68,1.41,1.41,0,0,1,.87-.83,2.19,2.19,0,0,1,.7-.11,2,2,0,0,1,.66.11,1.69,1.69,0,0,1,.5.31,1.36,1.36,0,0,1,.32.46,1.46,1.46,0,0,1,.05,1,1.41,1.41,0,0,1-.18.37,2,2,0,0,1-.27.32,3.51,3.51,0,0,1-.36.29l-.43.32,1.23,1.46a2.39,2.39,0,0,0,.2-.55,2.48,2.48,0,0,0,.07-.63H73A4.46,4.46,0,0,1,72.85,56a2.58,2.58,0,0,1-.43.88l1,1.11H72.13l-.36-.42A2.94,2.94,0,0,1,71,58a3.15,3.15,0,0,1-.87.12,2.65,2.65,0,0,1-.87-.13,1.94,1.94,0,0,1-.66-.38,1.66,1.66,0,0,1-.41-.57A1.77,1.77,0,0,1,68,56.27Zm2.12,1a1.6,1.6,0,0,0,.53-.09,1.64,1.64,0,0,0,.48-.27l-1.4-1.65-.13.1a1.54,1.54,0,0,0-.29.27,1.32,1.32,0,0,0-.15.24.7.7,0,0,0-.07.22,1.41,1.41,0,0,0,0,.18,1,1,0,0,0,.07.39.83.83,0,0,0,.2.32.93.93,0,0,0,.33.21A1.25,1.25,0,0,0,70.16,57.23Zm-.59-4.12a.85.85,0,0,0,.13.44A3,3,0,0,0,70,54l.38-.27.24-.18a.8.8,0,0,0,.15-.17.88.88,0,0,0,.09-.2,1,1,0,0,0,0-.25.6.6,0,0,0,0-.22.5.5,0,0,0-.13-.19.6.6,0,0,0-.21-.14.68.68,0,0,0-.29-.05.84.84,0,0,0-.29.05.51.51,0,0,0-.21.17.65.65,0,0,0-.13.23A.93.93,0,0,0,69.57,53.11Z"/><path class="cls-21" d="M81.42,55a4.1,4.1,0,0,1-.2,1.31,2.8,2.8,0,0,1-.53,1,2.36,2.36,0,0,1-.84.62,2.67,2.67,0,0,1-1.08.21,2.74,2.74,0,0,1-1.08-.21,2.55,2.55,0,0,1-.84-.62,3,3,0,0,1-.55-1A4.1,4.1,0,0,1,76.11,55v-.32a4.06,4.06,0,0,1,.19-1.31,3,3,0,0,1,.55-1,2.36,2.36,0,0,1,.84-.62,2.86,2.86,0,0,1,2.15,0,2.36,2.36,0,0,1,.84.62,2.63,2.63,0,0,1,.54,1,4.05,4.05,0,0,1,.2,1.31Zm-1.12-.33a3.9,3.9,0,0,0-.1-1,2.18,2.18,0,0,0-.3-.69,1.33,1.33,0,0,0-.49-.42,1.51,1.51,0,0,0-.65-.14,1.47,1.47,0,0,0-.64.14,1.51,1.51,0,0,0-.49.42,2.18,2.18,0,0,0-.3.69,3.44,3.44,0,0,0-.11,1V55a3.4,3.4,0,0,0,.11.95,1.83,1.83,0,0,0,.31.69,1.27,1.27,0,0,0,.49.43,1.47,1.47,0,0,0,.64.14,1.33,1.33,0,0,0,1.14-.56A2.92,2.92,0,0,0,80.3,55Z"/><path class="cls-21" d="M87.54,56.41l1-4.81h1.1L88.15,58H87.09l-1.22-4.67L84.63,58H83.56L82.08,51.6h1.11l1,4.8,1.22-4.8h.93Z"/><path class="cls-21" d="M95.52,58H94.41l-2.86-4.53V58H90.44V51.6h1.11l2.87,4.55V51.6h1.1Z"/><path class="cls-21" d="M102.66,56.5h-2.48L99.66,58H98.5l2.42-6.39h1L104.34,58h-1.16Zm-2.17-.89h1.85L101.42,53Z"/><path class="cls-21" d="M108.42,55.62V58H107.3V51.6h2.45a3,3,0,0,1,1,.15,2.09,2.09,0,0,1,.73.42,1.75,1.75,0,0,1,.46.65,2.16,2.16,0,0,1,.15.81,2.24,2.24,0,0,1-.15.84,1.65,1.65,0,0,1-.46.62,2,2,0,0,1-.73.39,3.33,3.33,0,0,1-1,.14Zm0-.89h1.33a1.77,1.77,0,0,0,.55-.08,1,1,0,0,0,.38-.23.83.83,0,0,0,.22-.34,1.27,1.27,0,0,0,.07-.44,1.25,1.25,0,0,0-.07-.43,1,1,0,0,0-.6-.62,1.32,1.32,0,0,0-.55-.1h-1.33Z"/><path class="cls-21" d="M114.23,58h-1.11V51.6h1.11Z"/><path class="cls-21" d="M119.34,55.14h-2.63v2h3.07V58H115.6V51.6h4.15v.89h-3v1.77h2.63Z"/><path class="cls-21" d="M125.57,55.91a3,3,0,0,1-.22.87,2.23,2.23,0,0,1-.49.69,2.29,2.29,0,0,1-.76.45,3,3,0,0,1-1,.16,2.65,2.65,0,0,1-1.07-.21,2.12,2.12,0,0,1-.81-.61,2.81,2.81,0,0,1-.52-.95,4.06,4.06,0,0,1-.18-1.25v-.52a3.77,3.77,0,0,1,.19-1.25,2.8,2.8,0,0,1,.53-1,2.38,2.38,0,0,1,.82-.61,2.75,2.75,0,0,1,1.09-.21,2.86,2.86,0,0,1,1,.16,2.26,2.26,0,0,1,.75.46,2.18,2.18,0,0,1,.48.7,3.07,3.07,0,0,1,.22.88h-1.11a2.33,2.33,0,0,0-.12-.55,1.38,1.38,0,0,0-.24-.41,1.09,1.09,0,0,0-.4-.25,1.74,1.74,0,0,0-.59-.09,1.53,1.53,0,0,0-.66.14A1.19,1.19,0,0,0,122,53a2,2,0,0,0-.29.66,4.09,4.09,0,0,0-.09.9v.53a4.6,4.6,0,0,0,.08.87,2.4,2.4,0,0,0,.26.67,1.23,1.23,0,0,0,.45.43,1.3,1.3,0,0,0,.67.16,1.82,1.82,0,0,0,.61-.09,1,1,0,0,0,.41-.24,1.18,1.18,0,0,0,.25-.4,2.62,2.62,0,0,0,.13-.55Z"/><path class="cls-21" d="M130.3,55.14h-2.63v2h3.08V58h-4.19V51.6h4.15v.89h-3v1.77h2.63Z"/><path class="cls-21" d="M139,55a4.4,4.4,0,0,1-.19,1.31,3,3,0,0,1-.54,1,2.36,2.36,0,0,1-.84.62,2.86,2.86,0,0,1-2.15,0,2.49,2.49,0,0,1-.85-.62,3.2,3.2,0,0,1-.55-1,4.1,4.1,0,0,1-.19-1.31v-.32a4.06,4.06,0,0,1,.19-1.31,3.14,3.14,0,0,1,.55-1,2.36,2.36,0,0,1,.84-.62,2.65,2.65,0,0,1,1.07-.21,2.75,2.75,0,0,1,1.09.21,2.55,2.55,0,0,1,.84.62,2.94,2.94,0,0,1,.54,1,4.35,4.35,0,0,1,.19,1.31Zm-1.11-.33a3.87,3.87,0,0,0-.11-1,2.18,2.18,0,0,0-.3-.69,1.38,1.38,0,0,0-.48-.42,1.56,1.56,0,0,0-.66-.14,1.5,1.5,0,0,0-.64.14,1.38,1.38,0,0,0-.48.42,2,2,0,0,0-.31.69,3.87,3.87,0,0,0-.11,1V55a3.82,3.82,0,0,0,.11.95,1.83,1.83,0,0,0,.31.69,1.34,1.34,0,0,0,.49.43,1.5,1.5,0,0,0,.64.14,1.33,1.33,0,0,0,1.14-.56,2.91,2.91,0,0,0,.4-1.65Z"/><path class="cls-21" d="M143.79,55.28h-2.57V58H140.1V51.6h4.07v.89h-2.95V54.4h2.57Z"/><path class="cls-21" d="M151.65,52.49h-2V58h-1.1v-5.5h-2V51.6h5.08Z"/><path class="cls-21" d="M157.57,58h-1.11V55.15H153.6V58h-1.11V51.6h1.11v2.66h2.86V51.6h1.11Z"/><path class="cls-21" d="M162.62,55.14H160v2h3.08V58h-4.19V51.6H163v.89h-3v1.77h2.63Z"/><path class="cls-21" d="M170.57,52.49h-2V58h-1.11v-5.5h-2V51.6h5.07Z"/><path class="cls-21" d="M173.76,55.53h-1.24V58h-1.11V51.6h2.25a3.65,3.65,0,0,1,1,.12,2.18,2.18,0,0,1,.73.37,1.49,1.49,0,0,1,.45.6,2.21,2.21,0,0,1,.15.84,1.74,1.74,0,0,1-.31,1.07,2,2,0,0,1-.86.67l1.44,2.67V58h-1.19Zm-1.24-.89h1.15a1.67,1.67,0,0,0,.52-.08,1,1,0,0,0,.37-.22,1,1,0,0,0,.23-.34,1.12,1.12,0,0,0,.07-.42,1.29,1.29,0,0,0-.07-.45,1,1,0,0,0-.21-.34,1,1,0,0,0-.38-.22,1.71,1.71,0,0,0-.54-.08h-1.14Z"/><path class="cls-21" d="M180.61,56.5h-2.48L177.61,58h-1.15l2.41-6.39h1L182.29,58h-1.16Zm-2.17-.89h1.86L179.37,53Z"/><path class="cls-21" d="M187.81,55.91a3,3,0,0,1-.22.87,2.23,2.23,0,0,1-.49.69,2.29,2.29,0,0,1-.76.45,3,3,0,0,1-1,.16,2.65,2.65,0,0,1-1.07-.21,2.12,2.12,0,0,1-.81-.61,2.81,2.81,0,0,1-.52-.95,4.06,4.06,0,0,1-.18-1.25v-.52a3.77,3.77,0,0,1,.19-1.25,3,3,0,0,1,.52-1,2.52,2.52,0,0,1,.83-.61,2.75,2.75,0,0,1,1.09-.21,2.86,2.86,0,0,1,1,.16,2.36,2.36,0,0,1,.75.46,2,2,0,0,1,.47.7,3.08,3.08,0,0,1,.23.88H186.7a2.33,2.33,0,0,0-.12-.55,1.22,1.22,0,0,0-.25-.41,1,1,0,0,0-.4-.25,1.64,1.64,0,0,0-.58-.09,1.53,1.53,0,0,0-.66.14,1.19,1.19,0,0,0-.47.42,2,2,0,0,0-.29.66,4.09,4.09,0,0,0-.09.9v.53a4.6,4.6,0,0,0,.08.87,2.13,2.13,0,0,0,.26.67,1.23,1.23,0,0,0,.45.43,1.3,1.3,0,0,0,.67.16,1.82,1.82,0,0,0,.61-.09,1,1,0,0,0,.41-.24,1.18,1.18,0,0,0,.25-.4,2.62,2.62,0,0,0,.13-.55Z"/><path class="cls-21" d="M190.64,55.23l-.73.77v2H188.8V51.6h1.11v3l.62-.76,1.87-2.24h1.34l-2.37,2.83L193.88,58h-1.32Z"/></svg>