<svg id="Layer_1" data-name="Layer 1" xmlns="http://www.w3.org/2000/svg" viewBox="0 0 512 352"><defs><style>.cls-1{fill:#c3d6dd;}.cls-2{fill:#5d9cec;}.cls-3{fill:#a0d468;}</style></defs><title>all-flags</title><path class="cls-1" d="M0,17.1V334.89a8.83,8.83,0,0,0,8.83,8.83H170.67V8.27H8.83A8.83,8.83,0,0,0,0,17.1Z"/><path class="cls-1" d="M503.17,8.27H170.67V343.73h332.5a8.83,8.83,0,0,0,8.83-8.83V17.1A8.83,8.83,0,0,0,503.17,8.27Z"/><path class="cls-2" d="M406,176A150,150,0,1,1,256,26,150,150,0,0,1,406,176Zm0,0"/><path class="cls-3" d="M398.65,129.47a150.36,150.36,0,0,0-92-94.7l-6.23-2.24-1.87,6.36c-.86,2.9-1.51,5-2,6.26-5.56,2.61-11.52,5-17.27,7.26-18.38,7.27-37.37,14.8-50.47,32.07-5.7,7.51-6.36,15.35-1.72,20.46,2.43,2.67,6,4,10.52,4a50.81,50.81,0,0,0,8.79-1,35.77,35.77,0,0,1,5.07-.71h.25c6.71.48,19.22,2.86,30.43,5.78,12.31,3.2,18.84,5.91,21.62,7.49-1.86,2.23-6.87,5.67-13.57,5.67a19.43,19.43,0,0,1-9.49-2.52c-4.62-2.55-16.19-5-32.14-7.82l-1.55-.27a13.13,13.13,0,0,0-2.33-.19c-6.7,0-22.51,3.25-34.34,15.54-10.35,10.75-15.25,25.55-14.56,44,.43,11.35,4.28,21,11.14,27.85s16.66,10.72,28.05,10.86h5c6.58,0,13.37,0,18.4,1.89,3.22,1.21,7.18,3.59,9.33,11.32,2.21,8,2.85,16.26,3.51,25,.62,8.2,1.28,16.67,3.37,25.1,4.14,16.68,12.66,20.84,19.08,21.4.92.08,1.83.11,2.73.11,14.28,0,23.77-9.61,31.52-18.63,1.85-2.15,3.87-4.23,6-6.43,4.73-4.84,9.62-9.85,13.1-16.21,4-7.32,5.45-15,6.86-22.44,1.32-7.05,2.59-13.71,5.94-19.53.45-.79,1-1.68,1.57-2.7,17-29.18,21.11-40,17.52-46.25a8.26,8.26,0,0,0-8.05-4.07c-1.65.13-3.28.19-4.84.19-10.25,0-18.73-2.82-23.26-7.73a10,10,0,0,1-2.17-3.39h.53c3,0,7.62,1.23,12.08,2.42,5.39,1.45,11,2.94,15.88,2.94,8,0,13.2-4.15,14.34-11.42,1.14-2.06,6.46-7.08,10.07-7.55l7.47-1Zm0,0"/><path class="cls-3" d="M154.14,205.22c-4.7-6.83-10.08-13.44-14.91-20.16-4.5-6.28-22.06-34.79-30.21-39.18A150.36,150.36,0,0,0,140.73,272s.05,0,.09,0c1.32,0,13.53-9.08,14.64-10,4.81-4.08,8.84-9.07,10.64-15.21,4.21-14.3-4-30.05-12-41.55Zm0,0"/></svg>