<svg id="Layer_1" data-name="Layer 1" xmlns="http://www.w3.org/2000/svg" viewBox="0 0 512 352"><defs><style>.cls-1{fill:#f3d55b;}.cls-2{fill:#fff;}</style></defs><title>gold-vip</title><path class="cls-1" d="M3.59,19.76V332.22a8.67,8.67,0,0,0,8.68,8.68H171.39V11.08H12.27A8.68,8.68,0,0,0,3.59,19.76Z"/><path class="cls-1" d="M498.32,11.08H171.4V340.91H498.32a8.68,8.68,0,0,0,8.68-8.67V19.76A8.68,8.68,0,0,0,498.32,11.08Z"/><path class="cls-2" d="M410,134.05a9.22,9.22,0,0,1-.24,2.8l-20.72,82.86a9.41,9.41,0,0,1-9.09,7.13l-124.31.64H131.3a9.41,9.41,0,0,1-9.13-7.15l-20.72-83.18a9.34,9.34,0,0,1-.25-2.87,19.79,19.79,0,1,1,18.49-3.6l25.94,26.13a35.21,35.21,0,0,0,53.06-3.58l42.63-56.49a19.78,19.78,0,1,1,28.26-.33s0,0,0,0l42.31,56.64A35.32,35.32,0,0,0,340.1,167.2,34.92,34.92,0,0,0,365,156.91l26.11-26.1A19.78,19.78,0,1,1,410,134.05ZM387,257a9.42,9.42,0,0,0-9.42-9.42H134a9.42,9.42,0,0,0-9.42,9.42v22.59A9.42,9.42,0,0,0,134,289H377.61a9.42,9.42,0,0,0,9.42-9.42Zm0,0"/></svg>